STARTFONT 2.1
COMMENT
COMMENT Converted from OpenType font "mta_new.ttf" by "otf2bdf 3.0".
COMMENT
FONT -FreeType-MTA-Medium-R-Normal--17-120-100-100-P-81-ISO10646-1
SIZE 12 100 100
FONTBOUNDINGBOX 17 17 -2 -4
STARTPROPERTIES 19
FOUNDRY "FreeType"
FAMILY_NAME "MTA"
WEIGHT_NAME "Medium"
SLANT "R"
SETWIDTH_NAME "Normal"
ADD_STYLE_NAME ""
PIXEL_SIZE 17
POINT_SIZE 120
RESOLUTION_X 100
RESOLUTION_Y 100
SPACING "P"
AVERAGE_WIDTH 81
CHARSET_REGISTRY "ISO10646"
CHARSET_ENCODING "1"
FONT_ASCENT 12
FONT_DESCENT 4
COPYRIGHT "Anonymous"
_OTF_FONTFILE "mta_new.ttf"
_OTF_PSNAME "MTA"
ENDPROPERTIES
CHARS 78
STARTCHAR 0020
ENCODING 32
SWIDTH 300 0
DWIDTH 5 0
BBX 0 0 0 0
BITMAP
ENDCHAR
STARTCHAR 0021
ENCODING 33
SWIDTH 960 0
DWIDTH 16 0
BBX 15 14 0 -1
BITMAP
07C0
1FF0
3FF8
7CFC
7CFC
78FC
FCFE
FCFE
FCFE
7CFC
7CFC
3FF8
1FF0
07C0
ENDCHAR
STARTCHAR 0023
ENCODING 35
SWIDTH 960 0
DWIDTH 16 0
BBX 15 14 0 -1
BITMAP
07C0
1FF0
3FF8
783C
7BBC
739C
FF9E
FC3E
FF9E
739C
783C
3FF8
1FF0
07C0
ENDCHAR
STARTCHAR 0024
ENCODING 36
SWIDTH 960 0
DWIDTH 16 0
BBX 15 14 0 -1
BITMAP
07C0
1FF0
3FF8
7E3C
7E3C
7C3C
FA3E
F63E
F01E
7E3C
7E3C
3FF8
1FF0
07C0
ENDCHAR
STARTCHAR 0025
ENCODING 37
SWIDTH 960 0
DWIDTH 16 0
BBX 15 14 0 -1
BITMAP
07C0
1FF0
3FF8
701C
73FC
73FC
F3FE
F01E
FF9E
739C
783C
3FF8
1FF0
07C0
ENDCHAR
STARTCHAR 0026
ENCODING 38
SWIDTH 960 0
DWIDTH 16 0
BBX 15 14 0 -1
BITMAP
07C0
1FF0
3FF8
783C
7BBC
739C
F7DE
F7DE
F6DE
73BC
78DC
3FF8
1FF0
07C0
ENDCHAR
STARTCHAR 0027
ENCODING 39
SWIDTH 960 0
DWIDTH 16 0
BBX 15 14 0 -1
BITMAP
07C0
1FF0
3FF8
783C
7BBC
739C
F39E
F03E
F39E
739C
783C
3FF8
1FF0
07C0
ENDCHAR
STARTCHAR 002A
ENCODING 42
SWIDTH 900 0
DWIDTH 15 0
BBX 14 14 0 -1
BITMAP
0200
0780
0FC0
18E0
3BF0
33B0
73F8
F0FC
7238
3230
18E0
0FC0
0780
0200
ENDCHAR
STARTCHAR 002C
ENCODING 44
SWIDTH 180 0
DWIDTH 3 0
BBX 3 4 -1 -2
BITMAP
60
60
40
C0
ENDCHAR
STARTCHAR 002D
ENCODING 45
SWIDTH 360 0
DWIDTH 6 0
BBX 5 1 0 4
BITMAP
F8
ENDCHAR
STARTCHAR 002E
ENCODING 46
SWIDTH 180 0
DWIDTH 3 0
BBX 2 2 0 0
BITMAP
C0
C0
ENDCHAR
STARTCHAR 002F
ENCODING 47
SWIDTH 540 0
DWIDTH 9 0
BBX 7 8 0 2
BITMAP
7E
7E
3E
1E
3E
76
E2
C0
ENDCHAR
STARTCHAR 0030
ENCODING 48
SWIDTH 420 0
DWIDTH 7 0
BBX 6 12 0 0
BITMAP
78
CC
CC
CC
CC
CC
CC
CC
CC
CC
CC
78
ENDCHAR
STARTCHAR 0031
ENCODING 49
SWIDTH 420 0
DWIDTH 7 0
BBX 6 12 0 0
BITMAP
1C
3C
6C
EC
CC
0C
0C
0C
0C
0C
0C
0C
ENDCHAR
STARTCHAR 0032
ENCODING 50
SWIDTH 420 0
DWIDTH 7 0
BBX 6 12 0 0
BITMAP
78
FC
CC
CC
0C
0C
18
38
70
E0
FC
FC
ENDCHAR
STARTCHAR 0033
ENCODING 51
SWIDTH 420 0
DWIDTH 7 0
BBX 6 12 0 0
BITMAP
78
FC
CC
CC
0C
38
38
0C
0C
CC
FC
78
ENDCHAR
STARTCHAR 0034
ENCODING 52
SWIDTH 420 0
DWIDTH 7 0
BBX 6 12 0 0
BITMAP
04
0C
1C
3C
3C
6C
CC
FC
FC
0C
0C
0C
ENDCHAR
STARTCHAR 0035
ENCODING 53
SWIDTH 420 0
DWIDTH 7 0
BBX 6 12 0 0
BITMAP
FC
FC
C0
C0
C0
F8
FC
0C
0C
0C
FC
F8
ENDCHAR
STARTCHAR 0036
ENCODING 54
SWIDTH 420 0
DWIDTH 7 0
BBX 6 12 0 0
BITMAP
78
FC
CC
CC
C0
F8
FC
CC
CC
CC
FC
78
ENDCHAR
STARTCHAR 0037
ENCODING 55
SWIDTH 420 0
DWIDTH 7 0
BBX 6 12 0 0
BITMAP
FC
FC
0C
1C
18
18
30
30
60
60
C0
C0
ENDCHAR
STARTCHAR 0038
ENCODING 56
SWIDTH 420 0
DWIDTH 7 0
BBX 6 12 0 0
BITMAP
78
FC
CC
CC
CC
78
78
CC
CC
CC
FC
78
ENDCHAR
STARTCHAR 0039
ENCODING 57
SWIDTH 420 0
DWIDTH 7 0
BBX 6 12 0 0
BITMAP
78
FC
CC
CC
CC
CC
FC
7C
0C
CC
FC
78
ENDCHAR
STARTCHAR 003A
ENCODING 58
SWIDTH 240 0
DWIDTH 4 0
BBX 2 9 1 0
BITMAP
C0
C0
C0
00
00
00
00
C0
C0
ENDCHAR
STARTCHAR 003C
ENCODING 60
SWIDTH 600 0
DWIDTH 10 0
BBX 9 8 0 2
BITMAP
1000
3000
3000
7F80
FF80
7F80
3000
1000
ENDCHAR
STARTCHAR 003E
ENCODING 62
SWIDTH 600 0
DWIDTH 10 0
BBX 9 8 0 2
BITMAP
0800
0C00
0C00
FE00
FF80
FE00
0C00
0800
ENDCHAR
STARTCHAR 0040
ENCODING 64
SWIDTH 960 0
DWIDTH 16 0
BBX 15 14 0 -1
BITMAP
07C0
1FF0
3FF8
783C
7BBC
739C
FF9E
FE3E
FCFE
79FC
701C
3FF8
1FF0
07C0
ENDCHAR
STARTCHAR 0041
ENCODING 65
SWIDTH 660 0
DWIDTH 11 0
BBX 10 12 0 0
BITMAP
1C00
1C00
1C00
3E00
3600
3600
3600
6380
7F80
7F80
C1C0
C1C0
ENDCHAR
STARTCHAR 0042
ENCODING 66
SWIDTH 420 0
DWIDTH 7 0
BBX 6 12 0 0
BITMAP
F8
FC
CC
CC
CC
F8
F8
CC
CC
CC
FC
F8
ENDCHAR
STARTCHAR 0043
ENCODING 67
SWIDTH 600 0
DWIDTH 10 0
BBX 9 12 0 0
BITMAP
3C00
7E00
6780
E780
C200
C000
C000
C000
C200
6780
7E00
3C00
ENDCHAR
STARTCHAR 0044
ENCODING 68
SWIDTH 540 0
DWIDTH 9 0
BBX 7 12 0 0
BITMAP
F8
FC
CE
CE
C6
C6
C6
C6
C6
CE
FC
F8
ENDCHAR
STARTCHAR 0045
ENCODING 69
SWIDTH 540 0
DWIDTH 9 0
BBX 7 12 0 0
BITMAP
FE
FE
C0
C0
C0
FE
FE
C0
C0
C0
FE
FE
ENDCHAR
STARTCHAR 0046
ENCODING 70
SWIDTH 420 0
DWIDTH 7 0
BBX 6 12 0 0
BITMAP
FC
FC
C0
C0
C0
F8
F8
C0
C0
C0
C0
C0
ENDCHAR
STARTCHAR 0047
ENCODING 71
SWIDTH 600 0
DWIDTH 10 0
BBX 9 12 0 0
BITMAP
3C00
7E00
6780
E780
C200
C000
C000
CF80
CF80
6600
7E00
3C00
ENDCHAR
STARTCHAR 0048
ENCODING 72
SWIDTH 540 0
DWIDTH 9 0
BBX 7 12 0 0
BITMAP
C6
C6
C6
C6
C6
FE
FE
C6
C6
C6
C6
C6
ENDCHAR
STARTCHAR 0049
ENCODING 73
SWIDTH 420 0
DWIDTH 7 0
BBX 6 12 0 0
BITMAP
FC
FC
30
30
30
30
30
30
30
30
FC
FC
ENDCHAR
STARTCHAR 004C
ENCODING 76
SWIDTH 600 0
DWIDTH 10 0
BBX 9 12 0 0
BITMAP
C000
C000
C000
C000
C000
C000
C000
C000
C000
C000
FF80
FF80
ENDCHAR
STARTCHAR 004D
ENCODING 77
SWIDTH 660 0
DWIDTH 11 0
BBX 12 16 -2 -4
BITMAP
3070
38F0
3DF0
3FF0
3FF0
3770
3270
3070
3070
3070
3070
3070
0000
0000
0000
8000
ENDCHAR
STARTCHAR 004E
ENCODING 78
SWIDTH 540 0
DWIDTH 9 0
BBX 7 12 0 0
BITMAP
C6
E6
F6
FE
FE
DE
CE
C6
C6
C6
C6
C6
ENDCHAR
STARTCHAR 004F
ENCODING 79
SWIDTH 600 0
DWIDTH 10 0
BBX 9 12 0 0
BITMAP
3C00
7E00
6600
E780
C380
C380
C380
C380
C380
6600
7E00
3C00
ENDCHAR
STARTCHAR 0050
ENCODING 80
SWIDTH 420 0
DWIDTH 7 0
BBX 6 12 0 0
BITMAP
F8
FC
CC
CC
CC
FC
F8
C0
C0
C0
C0
C0
ENDCHAR
STARTCHAR 0051
ENCODING 81
SWIDTH 600 0
DWIDTH 10 0
BBX 9 13 0 -1
BITMAP
7C00
FE00
C600
C600
C600
C600
C600
C600
D600
CC00
FE00
7B80
0180
ENDCHAR
STARTCHAR 0052
ENCODING 82
SWIDTH 540 0
DWIDTH 9 0
BBX 7 12 0 0
BITMAP
FC
FE
C6
C6
C6
FE
FC
CC
C6
C6
C6
C6
ENDCHAR
STARTCHAR 0053
ENCODING 83
SWIDTH 540 0
DWIDTH 9 0
BBX 7 12 0 0
BITMAP
7C
FE
C6
C6
C6
F0
7C
0E
C6
C6
FE
7C
ENDCHAR
STARTCHAR 0054
ENCODING 84
SWIDTH 600 0
DWIDTH 10 0
BBX 9 12 0 0
BITMAP
FF80
FF80
1800
1800
1800
1800
1800
1800
1800
1800
1800
1800
ENDCHAR
STARTCHAR 0055
ENCODING 85
SWIDTH 600 0
DWIDTH 10 0
BBX 8 12 1 0
BITMAP
C7
C7
C7
C7
C7
C7
C7
C7
C7
C7
FF
7C
ENDCHAR
STARTCHAR 0056
ENCODING 86
SWIDTH 660 0
DWIDTH 11 0
BBX 10 12 0 0
BITMAP
C1C0
C1C0
6380
6380
6380
6380
3600
3600
3600
1C00
1C00
1C00
ENDCHAR
STARTCHAR 0057
ENCODING 87
SWIDTH 600 0
DWIDTH 10 0
BBX 9 12 0 0
BITMAP
C380
C380
C380
C380
C380
C380
C380
DB80
FF80
FF80
E780
C380
ENDCHAR
STARTCHAR 0058
ENCODING 88
SWIDTH 600 0
DWIDTH 10 0
BBX 11 16 -2 -4
BITMAP
30E0
30E0
1980
1980
1980
0F00
0600
0F00
1980
1980
30E0
30E0
0000
0000
0000
8000
ENDCHAR
STARTCHAR 0059
ENCODING 89
SWIDTH 600 0
DWIDTH 10 0
BBX 11 16 -2 -4
BITMAP
30E0
30E0
1980
1980
1980
0F00
0F00
0600
0600
0600
0600
0600
0000
0000
0000
8000
ENDCHAR
STARTCHAR 005A
ENCODING 90
SWIDTH 540 0
DWIDTH 9 0
BBX 9 16 -2 -4
BITMAP
3F80
3F80
0300
0700
0600
0600
0C00
0C00
1800
1800
3F80
3F80
0000
0000
0000
8000
ENDCHAR
STARTCHAR 005C
ENCODING 92
SWIDTH 540 0
DWIDTH 9 0
BBX 7 8 0 2
BITMAP
FC
FC
F8
F0
F8
DC
8E
06
ENDCHAR
STARTCHAR 005E
ENCODING 94
SWIDTH 960 0
DWIDTH 16 0
BBX 15 14 0 -1
BITMAP
07C0
1FF0
3FF8
783C
7BFC
73FC
F3FE
F03E
F39E
739C
783C
3FF8
1FF0
07C0
ENDCHAR
STARTCHAR 0061
ENCODING 97
SWIDTH 420 0
DWIDTH 7 0
BBX 6 9 0 0
BITMAP
78
78
FC
CC
3C
FC
CC
FC
6C
ENDCHAR
STARTCHAR 0062
ENCODING 98
SWIDTH 420 0
DWIDTH 7 0
BBX 6 12 0 0
BITMAP
C0
C0
C0
F8
F8
FC
CC
CC
CC
CC
FC
F8
ENDCHAR
STARTCHAR 0063
ENCODING 99
SWIDTH 420 0
DWIDTH 7 0
BBX 6 9 0 0
BITMAP
38
38
7C
CC
C0
C0
CC
7C
38
ENDCHAR
STARTCHAR 0064
ENCODING 100
SWIDTH 420 0
DWIDTH 7 0
BBX 6 12 0 0
BITMAP
0C
0C
0C
7C
7C
FC
CC
CC
CC
CC
FC
7C
ENDCHAR
STARTCHAR 0065
ENCODING 101
SWIDTH 420 0
DWIDTH 7 0
BBX 6 9 0 0
BITMAP
78
78
FC
CC
FC
C0
CC
FC
78
ENDCHAR
STARTCHAR 0066
ENCODING 102
SWIDTH 300 0
DWIDTH 5 0
BBX 4 12 0 0
BITMAP
30
70
60
F0
F0
F0
60
60
60
60
60
60
ENDCHAR
STARTCHAR 0067
ENCODING 103
SWIDTH 420 0
DWIDTH 7 0
BBX 6 12 0 -3
BITMAP
6C
6C
FC
CC
CC
CC
CC
FC
6C
0C
CC
78
ENDCHAR
STARTCHAR 0068
ENCODING 104
SWIDTH 420 0
DWIDTH 7 0
BBX 6 12 0 0
BITMAP
C0
C0
C0
D8
D8
FC
CC
CC
CC
CC
CC
CC
ENDCHAR
STARTCHAR 0069
ENCODING 105
SWIDTH 300 0
DWIDTH 5 0
BBX 4 12 0 0
BITMAP
60
60
00
60
60
60
60
60
60
60
F0
F0
ENDCHAR
STARTCHAR 006B
ENCODING 107
SWIDTH 420 0
DWIDTH 7 0
BBX 6 12 0 0
BITMAP
C0
C0
C0
CC
CC
D8
F0
F8
D8
D8
CC
CC
ENDCHAR
STARTCHAR 006C
ENCODING 108
SWIDTH 180 0
DWIDTH 3 0
BBX 2 12 0 0
BITMAP
C0
C0
C0
C0
C0
C0
C0
C0
C0
C0
C0
C0
ENDCHAR
STARTCHAR 006D
ENCODING 109
SWIDTH 720 0
DWIDTH 12 0
BBX 11 9 0 0
BITMAP
FBC0
FBC0
FFE0
CCE0
CCE0
CCE0
CCE0
CCE0
CCE0
ENDCHAR
STARTCHAR 006E
ENCODING 110
SWIDTH 420 0
DWIDTH 7 0
BBX 6 9 0 0
BITMAP
F8
F8
FC
CC
CC
CC
CC
CC
CC
ENDCHAR
STARTCHAR 006F
ENCODING 111
SWIDTH 420 0
DWIDTH 7 0
BBX 6 9 0 0
BITMAP
78
78
FC
CC
CC
CC
CC
FC
78
ENDCHAR
STARTCHAR 0070
ENCODING 112
SWIDTH 360 0
DWIDTH 6 0
BBX 5 12 0 -3
BITMAP
F0
F0
F8
D8
D8
D8
D8
F8
F0
C0
C0
C0
ENDCHAR
STARTCHAR 0071
ENCODING 113
SWIDTH 420 0
DWIDTH 7 0
BBX 6 12 0 -3
BITMAP
7C
7C
FC
CC
CC
CC
CC
FC
7C
0C
0C
0C
ENDCHAR
STARTCHAR 0072
ENCODING 114
SWIDTH 360 0
DWIDTH 6 0
BBX 5 9 0 0
BITMAP
70
70
F8
C0
C0
C0
C0
C0
C0
ENDCHAR
STARTCHAR 0073
ENCODING 115
SWIDTH 420 0
DWIDTH 7 0
BBX 6 9 0 0
BITMAP
78
78
FC
C0
F8
7C
0C
FC
F8
ENDCHAR
STARTCHAR 0074
ENCODING 116
SWIDTH 300 0
DWIDTH 5 0
BBX 4 12 0 0
BITMAP
60
60
F0
F0
F0
60
60
60
60
60
70
70
ENDCHAR
STARTCHAR 0075
ENCODING 117
SWIDTH 420 0
DWIDTH 7 0
BBX 6 9 0 0
BITMAP
CC
CC
CC
CC
CC
CC
CC
FC
7C
ENDCHAR
STARTCHAR 0076
ENCODING 118
SWIDTH 600 0
DWIDTH 10 0
BBX 9 9 0 0
BITMAP
C380
C380
C380
C380
6600
7E00
3C00
1800
1800
ENDCHAR
STARTCHAR 0077
ENCODING 119
SWIDTH 780 0
DWIDTH 13 0
BBX 12 9 0 0
BITMAP
C030
C030
C030
CE30
CE30
5BA0
7BE0
71E0
71E0
ENDCHAR
STARTCHAR 0078
ENCODING 120
SWIDTH 540 0
DWIDTH 9 0
BBX 7 9 0 0
BITMAP
C6
C6
C6
6C
38
38
6C
C6
C6
ENDCHAR
STARTCHAR 0079
ENCODING 121
SWIDTH 600 0
DWIDTH 10 0
BBX 9 11 0 -2
BITMAP
C380
C380
C380
6600
6600
3C00
3C00
1800
1800
7800
7000
ENDCHAR
STARTCHAR 007A
ENCODING 122
SWIDTH 420 0
DWIDTH 7 0
BBX 6 9 0 0
BITMAP
FC
FC
FC
1C
38
70
E0
FC
FC
ENDCHAR
STARTCHAR 00A0
ENCODING 160
SWIDTH 300 0
DWIDTH 5 0
BBX 0 0 0 0
BITMAP
ENDCHAR
ENDFONT
